<svg width="128" height="128" viewBox="0 0 128 128" xmlns="http://www.w3.org/2000/svg"><g fill="none" fill-rule="evenodd"><path d="M27.05 27.25a3.905 3.905 0 0 1-5.498 0 3.904 3.904 0 0 1 0-5.497 3.903 3.903 0 0 1 5.498 0 3.904 3.904 0 0 1 0 5.497zm18.027 1.54L40.788 24.5l4.289-4.288h-.001a11.655 11.655 0 0 0 3.432-8.274c0-6.457-5.235-11.692-11.691-11.692a11.652 11.652 0 0 0-8.284 3.442l-4.278 4.278h-.001L19.975 3.69A11.653 11.653 0 0 0 11.692.247C5.235.247 0 5.482 0 11.94c0 3.231 1.312 6.157 3.432 8.273v.001l4.287 4.288-4.288 4.288h.001A11.653 11.653 0 0 0 0 37.065c0 6.456 5.235 11.69 11.692 11.69a11.65 11.65 0 0 0 8.283-3.442l4.278-4.277h.001l4.279 4.277a11.651 11.651 0 0 0 8.284 3.443c6.456 0 11.69-5.235 11.69-11.691 0-3.232-1.311-6.158-3.431-8.274z" fill="#FF5E3F" mask="url(#mask-2)" transform="translate(14.5 31.576)"></path><path d="M24.253 0v14.558L12.12 7.278.003 14.522v33.985H48.51V0H24.253zm13.999 12.617h5.336V7.281h-5.336v5.336zm-5.338 12.12h5.336V19.4h-5.336v5.336z" fill="#144225" mask="url(#mask-4)" transform="translate(43.604 47.745)"></path><path d="M24.508 13.392c0-.45-.056-.886-.158-1.304h.002l-.014-.053a.24.24 0 0 0-.003-.01l-1.322-5.203h-.003a4.056 4.056 0 0 0-3.959-3.182 4.057 4.057 0 0 0-3.96 3.182h-.003l-1.321 5.202-.003.01-.014.054h.002a5.459 5.459 0 0 0 3.965 6.596v5.57h2.668v-5.57a5.459 5.459 0 0 0 4.123-5.292zm-13.486-1.25a5.46 5.46 0 0 1-3.977 6.543v5.569H4.377v-5.57A5.459 5.459 0 0 1 .4 12.141H.394l1.409-8.78h.005A3.95 3.95 0 0 1 5.712.001a3.95 3.95 0 0 1 3.903 3.36h.006l1.413 8.78h-.012z" fill="#C2D500" mask="url(#mask-6)" transform="translate(86.938 71.999)"></path></g></svg>